# xmcd
# 
# Track frame offsets:
#     150
#     15350
#     33205
#     47331
#     70115
#     93197
#     111983
#     134822
#     150234
#     168920
# 
# Disc length: 2430
# 
# Revision: 1
# Processed by: cddbd v1.5.2PL0 Copyright (c) Steve Scherf et al.
# Submitted via: fre:ac v1.0.17
# 
DISCID=6e097c0a
DTITLE=Judith Owen - Here
DYEAR=2006
DGENRE=Blues
TTITLE0=Here
TTITLE1=You and The Moon
TTITLE2=Best Friend
TTITLE3=Worship
TTITLE4=Climbing Shoes
TTITLE5=I go to Sleep
TTITLE6=Hand Across the Water
TTITLE7=Eye of the Tiger
TTITLE8=The Room
TTITLE9=I'll Watch You (While You're Sleeping)
EXTD=
EXTT0=
EXTT1=
EXTT2=
EXTT3=
EXTT4=
EXTT5=
EXTT6=
EXTT7=
EXTT8=
EXTT9=
PLAYORDER=
